<svg width="30" height="24" viewBox="0 0 30 24" fill="none" xmlns="http://www.w3.org/2000/svg">
<path d="M29.5484 7.63125C29.5484 7.95548 29.4445 8.28188 29.2306 8.55469L26.9668 11.4436C26.6804 11.809 26.259 11.9991 25.8335 11.9991C25.5159 11.9991 25.196 11.893 24.9287 11.6747L22.2984 9.52969V21.75C22.2984 22.9927 21.3246 24 20.1234 24H9.97335C8.77257 24 7.79835 22.9922 7.79835 21.75V9.52969L5.12945 11.6766C4.90062 11.8922 4.58071 11.9578 4.26307 11.9578C3.83768 11.9578 3.41618 11.7676 3.12981 11.4023L0.866085 8.55469C0.65221 8.28281 0.54834 7.95469 0.54834 7.63125C0.54834 7.19709 0.73462 6.76687 1.09254 6.47437L7.20973 1.4775C7.78929 1.00734 8.50976 0.75 9.20757 0.75H10.7709C11.1198 2.87625 12.896 4.5 15.0484 4.5C17.2007 4.5 18.9783 2.87625 19.3254 0.75H20.8479C21.5888 0.75 22.3079 1.00734 22.8865 1.47984L29.0037 6.47672C29.3626 6.76875 29.5484 7.2 29.5484 7.63125Z" fill="url(#paint0_linear_7_832)"/>
<defs>
<linearGradient id="paint0_linear_7_832" x1="15.0483" y1="0.75" x2="15.0483" y2="24" gradientUnits="userSpaceOnUse">
<stop stop-color="#2DD4BF"/>
<stop offset="1" stop-color="#14B8A6"/>
</linearGradient>
</defs>
</svg>
